# xmcd CD database file
#
# Track frame offsets:
#	150
#	18878
#	52078
#	86810
#	105270
#	136430
#	170928
#	193420
#
# Disc length: 2916 seconds
#
# Revision: 0
# Processed by: cddbd v1.5.2PL0 Copyright (c) Steve Scherf et al.
# Submitted via: CDex 1.70beta2
#
DISCID=700b6208
DTITLE=Akira Ohmori - Trust In Blue
DYEAR=1988
DGENRE=Jazz
TTITLE0=01-Bloomdido
TTITLE1=02-Mingus Mood
TTITLE2=03-Trust In Blue
TTITLE3=04-Just Friends
TTITLE4=05-I Concentrate On You
TTITLE5=06-Saxology
TTITLE6=07-You Don't Know What Love Is
TTITLE7=08-A Part Of Me
EXTD=YEAR: 1988
EXTT0=
EXTT1=
EXTT2=
EXTT3=
EXTT4=
EXTT5=
EXTT6=
EXTT7=
PLAYORDER=
